<svg width="114" height="43" viewBox="0 0 114 43" fill="none" xmlns="http://www.w3.org/2000/svg">
<path fill-rule="evenodd" clip-rule="evenodd" d="M82.4883 35.2294C84.4076 33.3524 87.0591 32.1914 89.988 32.1914C92.9167 32.1914 95.5683 33.3524 97.4876 35.2294L89.988 42.5638L82.4883 35.2294Z" fill="#AD3A10"/>
<path fill-rule="evenodd" clip-rule="evenodd" d="M83.1285 31.5476L90.0495 26.7097L96.9705 31.5476C98.3486 32.511 100.103 32.9602 101.906 32.6669C103.709 32.3736 105.22 31.3933 106.205 30.0455L100.82 26.2813L91.9951 20.1127L91.991 20.1096L91.9869 20.1065L91.9829 20.1039L91.9788 20.1013L91.9748 20.0986L91.9707 20.096L91.9666 20.0933C91.8868 20.0376 91.8195 19.9913 91.6582 19.8908C91.4862 19.7836 91.2074 19.6147 90.9422 19.4964C90.677 19.378 90.4256 19.3102 90.1419 19.2906C89.8583 19.271 89.5426 19.2998 89.1885 19.4513C88.851 19.5957 88.4788 19.8516 88.2071 20.0413L88.1939 20.0506L88.1807 20.0597L88.1678 20.0688L88.155 20.0777L88.1424 20.0865L88.13 20.0952L88.1177 20.1038L88.1057 20.1122L88.0937 20.1205L88.0819 20.1288L88.0704 20.1369L88.0589 20.1449L88.0477 20.1528L88.0365 20.1605L88.0148 20.1757L88.0041 20.1832L87.9936 20.1905L87.9832 20.1978L87.973 20.2049L87.963 20.212L87.9531 20.2189L87.9433 20.2257L87.9337 20.2325L87.9241 20.2391L87.9148 20.2456L87.9056 20.2521L87.8965 20.2584L87.8876 20.2646L87.8788 20.2708L87.8701 20.2769L87.8616 20.2828L87.8532 20.2887L87.8449 20.2945L87.8367 20.3002L87.8287 20.3058L87.8208 20.3114L87.813 20.3168L87.8053 20.3221L87.7978 20.3274L87.7903 20.3326L87.783 20.3378L87.7758 20.3428L87.7687 20.3477L87.7617 20.3526L87.7549 20.3574L87.7481 20.3622L87.7414 20.3668L87.7349 20.3714L87.7284 20.3759L87.7221 20.3804L87.7158 20.3848L87.7096 20.3892L87.7036 20.3936L87.6976 20.398L87.6918 20.402L87.686 20.4059L87.6803 20.4099L87.6747 20.4139L87.6692 20.4179L87.6638 20.4218L87.6585 20.4254L87.6532 20.4289L87.648 20.4324L87.643 20.436L87.6379 20.4395L87.633 20.443L87.6281 20.4465L87.6234 20.4501L87.6187 20.4532L87.614 20.4563L79.2795 26.2823L73.8945 30.0465C74.8796 31.3944 76.3904 32.3746 78.1934 32.6679C79.9966 32.9612 81.7504 32.511 83.1285 31.5476Z" fill="#179A9C"/>
<path fill-rule="evenodd" clip-rule="evenodd" d="M90.0516 14.5563L76.4036 24.1741C74.8712 25.2539 72.9177 25.7621 70.9061 25.4426C68.8945 25.1231 67.2057 24.0365 66.1016 22.5379L72.089 18.3185L89.0472 6.36808L89.0513 6.36517L89.0549 6.36253L89.0585 6.35987L89.0621 6.35723L89.0657 6.35458L89.0693 6.35193L89.0729 6.34928C89.1456 6.29813 89.2163 6.24915 89.3155 6.19041C89.423 6.12668 89.5639 6.05152 89.6849 6.00403C89.8059 5.95654 89.9071 5.93677 90.0155 5.93112C90.1239 5.92547 90.2395 5.93376 90.4122 6.00782C90.5849 6.0817 90.8148 6.22103 90.9707 6.31949C91.1144 6.41032 91.1952 6.46646 91.2467 6.50269L91.2494 6.50446L91.2521 6.50622L91.2544 6.50799L91.2566 6.50975L91.2589 6.51151L91.2611 6.51329L91.2634 6.51505L91.2657 6.51681L91.2679 6.51858L108.013 18.319L114.001 22.5384C112.896 24.0369 111.208 25.1236 109.196 25.4431C107.184 25.7625 105.231 25.2543 103.699 24.1745L90.0504 14.5567L90.0516 14.5563Z" fill="#AD3A10"/>
<path fill-rule="evenodd" clip-rule="evenodd" d="M73.6719 15.4208C73.7654 15.3538 75.1202 14.3836 77.7361 12.5103C80.3521 10.6371 81.6964 9.6435 81.7692 9.52964C81.8419 9.4158 81.8693 8.84106 81.8513 7.80543C81.8333 6.76979 81.8232 6.19395 81.821 6.07791C81.8189 5.96184 81.7332 5.90464 81.564 5.90632C81.395 5.90808 80.1888 5.90779 77.9457 5.90543C75.7025 5.90338 74.5264 5.90234 74.4173 5.90234C74.3081 5.90234 74.2529 5.98615 74.2515 6.15377C74.25 6.32139 74.25 6.48537 74.2515 6.64569C74.253 6.80604 74.2659 8.10941 74.29 10.5558C74.3143 13.0022 74.1731 14.5087 73.8665 15.0753" fill="#AD3A10"/>
<path fill-rule="evenodd" clip-rule="evenodd" d="M9.00299 5.83203C8.61376 5.83203 8.22835 5.907 7.86874 6.05267C7.50914 6.19833 7.18239 6.41184 6.90716 6.681C6.63194 6.95016 6.41362 7.2697 6.26467 7.62138C6.11572 7.97306 6.03906 8.34999 6.03906 8.73064C6.03907 9.30391 6.21291 9.86431 6.53859 10.341C6.86426 10.8176 7.32716 11.1891 7.86874 11.4085C8.41032 11.6279 9.00625 11.6853 9.58119 11.5734C10.1561 11.4616 10.6842 11.1855 11.0987 10.7802C11.5132 10.3748 11.7955 9.85835 11.9099 9.29608C12.0242 8.73382 11.9656 8.15102 11.7412 7.62138C11.5169 7.09174 11.137 6.63905 10.6496 6.32055C10.1622 6.00205 9.58919 5.83204 9.00299 5.83203Z" fill="#AD3A10"/>
<path fill-rule="evenodd" clip-rule="evenodd" d="M56.1914 10.8325C56.2019 9.94087 56.5552 9.05233 57.2508 8.37201C57.9571 7.68128 58.8829 7.33589 59.8086 7.33594V10.8733H59.8077V21.442C59.8077 22.347 59.4546 23.2521 58.7485 23.9426C58.0424 24.6331 57.1169 24.9784 56.1915 24.9784V21.442V10.8733V10.8711L56.1914 10.8325Z" fill="#AD3A10"/>
<path fill-rule="evenodd" clip-rule="evenodd" d="M54.8338 8.45145C58.489 5.8925 60.5248 4.37044 60.9413 3.88527C61.3578 3.40012 61.6244 2.89207 61.7411 2.36112C61.8579 1.83013 61.9051 1.32442 61.8829 0.843985C61.8607 0.363547 61.7912 0.0951129 61.6745 0.0386808C61.5577 -0.0177218 61.4409 -0.0124421 61.324 0.0545231C61.2071 0.121518 60.3836 0.672553 58.8533 1.70763C57.3231 2.74271 56.3314 3.47881 55.8783 3.91594C55.4253 4.35307 55.0736 4.82301 54.8235 5.32578C54.5733 5.82855 54.4449 6.3334 54.4382 6.84031C54.4314 7.3472 54.4766 7.90433 54.5737 8.5117" fill="#AD3A10"/>
<path fill-rule="evenodd" clip-rule="evenodd" d="M53.7414 23.6742C54.591 22.4693 54.592 20.1223 54.5914 17.8724C54.591 15.6225 54.5887 13.4698 54.5841 12.2615C54.5795 11.0532 54.573 10.7895 54.4766 10.529C54.3802 10.2686 54.1938 10.0116 53.9873 9.85035C53.7807 9.68918 53.5538 9.62385 53.3867 9.5803C53.2195 9.53678 53.1121 9.51507 53.0135 9.50686C52.9148 9.49865 52.825 9.50377 50.8075 9.50333C48.79 9.50293 44.8447 9.49679 42.8473 9.49375C40.8499 9.49066 40.8004 9.49066 40.6614 9.50809C40.5224 9.52544 40.294 9.56004 40.0875 9.67646C39.8812 9.79288 39.6968 9.99113 39.5974 10.1689C39.4981 10.3468 39.4837 10.5042 39.4759 12.9516C39.4681 15.399 39.467 20.1363 39.463 22.5259C39.4589 24.9153 39.4521 24.957 39.5416 24.9778C39.6311 24.9987 39.8168 24.9987 40.122 24.9199C40.4273 24.8411 40.8521 24.6835 41.2313 24.4262C41.6105 24.1689 41.9441 23.8118 42.2351 23.3947C42.5262 22.9776 42.7745 22.5004 42.8764 20.7899C42.9782 19.0792 42.9334 16.1352 42.9325 14.6346C42.9316 13.1342 42.9744 13.0772 43.0291 13.0411C43.0839 13.0051 43.1504 12.99 43.6428 12.9821C44.1353 12.9743 45.0535 12.9737 45.9922 12.9726C46.9309 12.9713 47.89 12.9699 48.6543 13.0271C49.4187 13.0845 49.9884 13.2011 50.3699 13.3827C50.7515 13.5643 50.9449 13.811 51.085 14.0411C51.225 14.2712 51.3117 14.4846 51.3561 14.7478C51.4005 15.011 51.4027 15.3239 51.402 15.5078C51.4011 15.6918 51.3975 15.7466 51.3587 15.7759C51.32 15.8051 51.246 15.8086 51.1895 15.8075C51.133 15.8062 51.094 15.8006 50.2498 15.7925C49.4054 15.7845 47.7559 15.7741 46.7994 15.7894C45.8429 15.8047 45.5795 15.8456 45.4088 15.9428C45.238 16.04 45.1599 16.1935 45.121 16.2975C45.0821 16.4015 45.0823 16.4559 45.0867 17.7772C45.0912 19.0984 45.0998 21.6863 45.1003 23.0628C45.1008 24.4393 45.0934 24.6042 45.129 24.7253C45.1648 24.8464 45.2437 24.9236 45.3958 24.9626C45.5478 25.0016 45.7731 25.0023 46.4283 25.0031C47.0835 25.004 48.1688 25.0049 48.7517 25.0053C49.3346 25.0056 49.4151 25.0052 50.3044 24.9736C51.1937 24.942 52.8918 24.8792 53.7414 23.6742ZM51.336 18.8347C51.3479 18.8661 51.351 18.9079 51.352 19.4008C51.3529 19.8936 51.352 20.8376 50.9274 21.3259C50.5028 21.8142 49.6547 21.8468 49.2097 21.8619C48.7648 21.8772 48.723 21.8749 48.6689 21.8755C48.6147 21.8759 48.5481 21.8794 48.4908 21.8705C48.4336 21.8616 48.3857 21.8405 48.3617 21.7993C48.3376 21.7582 48.3373 21.6969 48.3394 21.2202C48.3416 20.7434 48.3461 19.8511 48.3485 19.385C48.3507 18.9189 48.3512 18.879 48.3641 18.8455C48.3771 18.812 48.4028 18.785 48.4291 18.7718C48.4553 18.7586 48.482 18.7593 48.9451 18.7605C49.4082 18.7618 50.3077 18.7631 50.77 18.7636C51.2323 18.7638 51.2575 18.7627 51.2804 18.7726C51.3033 18.7825 51.324 18.8034 51.336 18.8347Z" fill="#AD3A10"/>
<path fill-rule="evenodd" clip-rule="evenodd" d="M37.3369 4.66016C37.3416 12.8236 37.3354 16.9805 37.3183 17.1311C37.3012 17.2816 37.1973 18.0925 37.0065 19.5638C36.8157 21.0352 36.3661 22.1466 35.6577 22.8982C34.9493 23.6498 34.2389 24.1962 33.5264 24.5375C32.8139 24.8788 31.6149 25.0403 29.9294 25.0222C28.2438 25.004 27.3804 24.9848 27.3391 24.9644C27.2978 24.944 27.2524 24.8551 27.2028 24.6976C27.1533 24.5402 27.1376 22.456 27.1558 18.4449C27.1739 14.4339 27.1834 12.1702 27.1841 11.654C27.1847 11.1379 27.2158 10.7041 27.2775 10.3528C27.3389 10.0015 27.5616 9.54125 27.9454 8.97214C28.3292 8.40299 28.8377 7.99202 29.4708 7.73922C30.104 7.48642 30.4697 7.3551 30.568 7.34524C30.6663 7.33541 30.7154 7.33996 30.7152 7.35888C30.7151 7.3778 30.7078 9.7274 30.6932 14.4077C30.6786 19.088 30.6767 21.513 30.6876 21.6828C30.6985 21.8526 31.0073 21.8451 31.6141 21.6605C32.2208 21.4758 32.6728 21.1867 32.9699 20.7931C33.2671 20.3996 33.4905 20.0146 33.6401 19.6382C33.7897 19.2617 33.8748 18.1732 33.8955 16.3728C33.9161 14.5723 33.9099 12.8376 33.8768 11.1688C33.8438 9.49989 33.884 8.32604 33.9974 7.6472C34.1108 6.96837 34.3956 6.40681 34.8517 5.9625C35.3079 5.51819 35.7864 5.19171 36.2872 4.98304C36.788 4.77435 37.1344 4.66748 37.3264 4.66245" fill="#179A9C"/>
<path fill-rule="evenodd" clip-rule="evenodd" d="M24.9459 7.28516C24.729 7.33968 24.4081 7.43432 23.9831 7.56907C23.5581 7.70383 23.1057 8.01944 22.6259 8.51591C22.1461 9.01239 21.8371 9.5286 21.6988 10.0646C21.5607 10.6005 21.4978 11.2923 21.5101 12.14C21.5225 12.9876 21.5225 13.7808 21.5101 14.5195C21.4978 15.2582 21.1285 15.6215 20.4025 15.6094C19.6765 15.5973 19.0333 15.5943 18.473 15.6004C17.9127 15.6064 17.6334 15.614 17.635 15.623C17.6365 15.6321 17.6417 14.4356 17.6507 12.0334C17.6596 9.63111 17.6586 8.26881 17.6475 7.94646C17.6366 7.62411 17.6297 7.43871 17.627 7.39028C17.6243 7.34183 17.4651 7.37209 17.1493 7.48107C16.8335 7.59008 16.4427 7.78081 15.9768 8.05326C15.5109 8.32571 15.0457 8.79344 14.5814 9.45644C14.1171 10.1194 13.894 11.1383 13.9119 12.5132C13.9299 13.8881 13.9389 15.187 13.9389 16.4101C13.9389 17.6331 13.8584 18.5595 13.6974 19.1892C13.5364 19.8189 13.3254 20.3424 13.0644 20.7597C12.8033 21.1771 12.4592 21.4705 12.032 21.64C11.6048 21.8095 11.2334 21.8973 10.9176 21.9034C10.6019 21.9094 9.61127 21.9125 7.94583 21.9125C6.28038 21.9125 5.25265 21.9034 4.86262 21.8852C4.47256 21.8671 4.27253 21.7638 4.26255 21.5753C4.25256 21.3869 4.24976 19.9266 4.25415 17.1945C4.25854 14.4624 4.2604 13.0827 4.25971 13.0554C4.25898 13.0281 4.23228 13.0099 4.1796 13.0008C4.12692 12.9917 3.70667 13.1087 2.91885 13.3516C2.13104 13.5946 1.52353 14.043 1.09635 14.6969C0.669164 15.3508 0.393477 16.1358 0.269285 17.052C0.145122 17.9682 0.0768559 19.0802 0.0644907 20.388C0.0520955 21.6958 0.0592411 22.7764 0.0859269 23.6297C0.112643 24.483 0.124451 24.9255 0.121352 24.9573C0.118253 24.9891 0.154626 25.0035 0.230471 25.0004C0.306317 24.9974 2.14363 24.9936 5.74239 24.9891C9.34119 24.9845 11.7184 25.0097 12.8741 25.0646C14.0297 25.1195 14.9604 24.8321 15.6662 24.2024C16.372 23.5728 16.832 23.0208 17.0461 22.5466C17.2603 22.0723 17.4122 21.5953 17.502 21.1155C17.5918 20.6357 17.6321 20.1157 17.623 19.5556C17.6139 18.9955 17.6391 18.7286 17.6986 18.7549C17.7581 18.7812 18.125 18.7913 18.7993 18.7853C19.4735 18.7793 20.3078 18.7761 21.302 18.7759C22.2962 18.7756 22.9894 18.6854 23.3816 18.5053C23.7738 18.3251 24.1172 18.0593 24.4118 17.7078C24.7064 17.3562 24.8666 16.8098 24.8926 16.0685C24.9186 15.3272 24.9339 13.9883 24.9386 12.0518C24.9434 10.1152 24.9458 8.64141 24.9457 7.63029" fill="#179A9C"/>
<path fill-rule="evenodd" clip-rule="evenodd" d="M17.7745 24.6806C17.9602 23.7845 18.2419 23.1397 18.6196 22.7462C18.9973 22.3526 19.3688 22.1151 19.7342 22.0335C20.0997 21.9519 20.9108 21.9051 22.1676 21.893C23.4245 21.8809 24.169 21.8796 24.4011 21.889C24.6333 21.8985 24.7819 21.9046 24.8469 21.9072C24.9119 21.9099 24.9505 21.9974 24.9627 22.1698C24.9749 22.3421 24.8697 22.7296 24.6469 23.3323C24.4242 23.9349 24.0745 24.3785 23.5978 24.6631C23.1211 24.9476 22.1645 25.0701 20.728 25.0306C19.2914 24.9911 18.2792 24.9957 17.6914 25.0445" fill="#179A9C"/>
<path fill-rule="evenodd" clip-rule="evenodd" d="M16.8201 35.6028C18.3737 33.885 19.177 33.0106 19.2302 32.9795C19.2833 32.9485 19.3388 32.9298 19.3967 32.9234C19.4545 32.9169 21.0787 32.9128 24.2694 32.9109C27.4601 32.9091 29.1085 32.9105 29.2147 32.9149C29.3208 32.9193 29.3751 32.9951 29.3777 33.1423C29.3801 33.2895 29.3898 34.3236 29.4069 36.2444C29.4239 38.1653 29.4283 39.3302 29.4203 39.7391C29.4122 40.148 29.2813 40.6965 29.0275 41.3845C28.7736 42.0725 28.3266 42.4895 27.6862 42.6355C27.0459 42.7814 26.7283 42.8407 26.7334 42.8132C26.7385 42.7858 26.7363 41.8352 26.7268 39.9613C26.7173 38.0875 26.7116 36.953 26.7096 36.5577C26.7075 36.1623 26.577 35.8461 26.3181 35.6089C26.0591 35.3717 25.7089 35.2531 25.2675 35.2531C24.8261 35.2531 24.6068 35.2722 24.6095 35.3104C24.6122 35.3485 24.6148 35.4964 24.6173 35.7539C24.6197 36.0114 24.6107 36.8176 24.5902 38.1725C24.5697 39.5274 24.5647 40.3882 24.5749 40.7549C24.5852 41.1216 24.4015 41.5451 24.0239 42.0254C23.6462 42.5057 23.2208 42.7602 22.7476 42.7889C22.2744 42.8176 22.0238 42.8282 21.9957 42.8207C21.9677 42.8132 21.9578 42.4825 21.9662 41.8287C21.9745 41.1748 21.9707 40.1677 21.9546 38.8073C21.9385 37.4469 21.9184 36.6527 21.8943 36.4247C21.8701 36.1967 21.7687 35.9425 21.59 35.6623C21.4112 35.382 21.0163 35.2419 20.4053 35.2419C19.7943 35.2419 19.4792 35.2419 19.4601 35.2419C19.4409 35.2419 19.4305 35.4471 19.4287 35.8575C19.4269 36.2679 19.4388 37.188 19.4644 38.6176C19.4899 40.0473 19.4363 40.9605 19.3036 41.3573C19.171 41.754 18.9452 42.079 18.6263 42.3322C18.3073 42.5855 17.9253 42.7371 17.4801 42.787C17.0348 42.8369 16.8116 42.8556 16.8103 42.8431C16.8091 42.8306 16.8097 41.6607 16.8122 39.3334C16.8149 37.0061 16.8111 35.7938 16.8008 35.6965" fill="#AD3A10"/>
<path fill-rule="evenodd" clip-rule="evenodd" d="M34.3909 28.2905C34.3754 28.1609 34.3652 28.0748 34.3601 28.0323C34.3551 27.9899 34.2747 27.9674 34.1191 27.9649C33.9635 27.9625 33.5474 28.0312 32.871 28.1708C32.1946 28.3106 31.729 28.7634 31.4742 29.5294C31.2194 30.2953 31.0913 30.7947 31.09 31.0273C31.0888 31.26 31.0952 32.9904 31.1092 36.2184C31.1233 39.4464 31.1304 41.3523 31.1304 41.9362C31.1304 42.52 31.3013 42.8144 31.6431 42.8194C31.9849 42.8244 33.0806 42.8319 34.9303 42.8419C36.78 42.8519 37.7151 42.8519 37.7355 42.8419C37.7559 42.8319 37.7712 42.3978 37.7814 41.5394C37.7916 40.6811 37.775 40.2516 37.7316 40.2508C37.6883 40.2502 37.6079 40.2488 37.4906 40.2464C37.3732 40.2444 37.2712 40.2448 37.1844 40.2477C37.0977 40.2507 36.6359 40.2533 35.799 40.2557C34.9622 40.2581 34.5157 40.1109 34.4596 39.8141C34.4035 39.5172 34.3755 39.3338 34.3756 39.2639" fill="#179A9C"/>
<path fill-rule="evenodd" clip-rule="evenodd" d="M42.17 32.9531C40.6392 33.1812 39.7296 33.5972 39.4413 34.201C39.153 34.8048 39.0072 35.2051 39.0041 35.4017C39.0009 35.5984 38.9942 36.0138 38.9839 36.6479C38.9737 37.2821 38.9741 38.4718 38.9853 40.2172C38.9964 41.9625 39.007 42.8364 39.0172 42.8389C39.0274 42.8413 39.4585 42.7957 40.3105 42.7024C41.1624 42.6088 41.7083 42.1828 41.9481 41.4242C42.188 40.6658 42.3091 40.1811 42.3116 39.9702C42.3141 39.7594 42.3091 38.6909 42.2967 36.7646C42.2841 34.8384 42.2855 33.5759 42.3007 32.977" fill="#179A9C"/>
<path fill-rule="evenodd" clip-rule="evenodd" d="M43.582 43.0007C43.6464 39.36 43.6741 36.7688 43.6649 35.227C43.6557 33.6853 43.6588 32.9169 43.6741 32.9219C43.6895 32.9269 44.6028 32.9272 46.4143 32.9228C48.2257 32.9183 49.3757 33.0742 49.8642 33.3906C50.3527 33.707 50.6827 34.096 50.8542 34.5576C51.0257 35.0192 51.1029 35.3573 51.0858 35.5719C51.0688 35.7864 51.0803 36.7441 51.1203 38.4447C51.1604 40.1454 51.0679 41.2296 50.8428 41.6975C50.6177 42.1654 50.2895 42.4729 49.8584 42.6198C49.4273 42.7666 49.1219 42.8401 48.942 42.8401C48.7621 42.8401 48.6722 42.8357 48.6722 42.827C48.6723 42.8182 48.6738 42.0901 48.6767 40.6427C48.6797 39.1953 48.6817 38.2337 48.6825 37.758C48.6834 37.2823 48.6443 36.7628 48.5651 36.1996C48.486 35.6364 48.0815 35.3299 47.3518 35.28C46.6222 35.2301 46.2574 35.2425 46.2574 35.3174C46.2575 35.3922 46.258 35.7912 46.2588 36.5142C46.2594 37.2372 46.2597 38.1276 46.2597 39.1852C46.2597 40.2429 46.2396 40.925 46.1994 41.2317C46.1592 41.5384 46.0024 41.8608 45.729 42.1989C45.4557 42.537 44.7923 42.7999 43.7389 42.9877" fill="#179A9C"/>
<path fill-rule="evenodd" clip-rule="evenodd" d="M3.45312 35.2412C3.49395 33.6942 3.52186 32.9287 3.53684 32.9447C3.55179 32.9607 5.83906 32.967 10.3986 32.9634C14.9582 32.9599 17.2814 32.9432 17.3681 32.9132C17.4549 32.8833 17.5306 32.8709 17.5951 32.8762C17.6597 32.8814 17.6036 33.1003 17.4267 33.5327C17.2498 33.9652 16.9603 34.3427 16.5583 34.665C16.1563 34.9874 15.5682 35.1691 14.7941 35.2099C14.0199 35.2507 12.1659 35.2736 9.23189 35.2786C6.29786 35.2835 4.41753 35.2761 3.5909 35.2561" fill="#AD3A10"/>
<path fill-rule="evenodd" clip-rule="evenodd" d="M0.0317568 42.8455C0.976532 42.7071 1.64742 42.4991 2.04443 42.2215C2.44141 41.9439 2.69586 41.5665 2.80778 41.0893C2.91969 40.6121 2.97946 40.3573 2.98707 40.3248C2.99468 40.2924 3.00557 39.6476 3.01974 38.3903C3.03391 37.1331 3.01017 35.5006 2.94853 33.4928C2.88688 31.485 2.98787 30.1135 3.25148 29.3783C3.51512 28.6431 4.25606 28.2798 5.47431 28.2886C6.6926 28.2973 7.69082 28.3066 8.46898 28.3166C9.24717 28.3266 9.67708 28.3565 9.7587 28.4064C9.84032 28.4563 9.89645 28.6584 9.92708 29.0127C9.9577 29.367 9.96748 29.7292 9.95641 30.0992C9.94533 30.4691 9.94273 30.8384 9.9486 31.207C9.95447 31.5756 9.96633 31.7611 9.98421 31.7636C10.002 31.766 10.446 31.771 11.316 31.7786C12.186 31.7861 12.6191 31.7786 12.6152 31.7561C12.6113 31.7337 12.6147 31.6702 12.6254 31.5657C12.6361 31.4612 12.637 30.6218 12.6281 29.0475C12.6193 27.4731 12.614 26.6615 12.6122 26.6124C12.6104 26.5634 12.6 26.4671 12.5809 26.3237C12.5618 26.1802 12.4655 26.1047 12.292 26.0972C12.1185 26.0898 10.7504 26.0689 8.18765 26.0346C5.62485 26.0004 3.74041 25.9989 2.53434 26.0302C1.32824 26.0617 0.60463 26.0835 0.363495 26.0956C0.122359 26.1078 0.00505565 26.1738 0.0115842 26.2936C0.0181428 26.4134 0.017707 29.1969 0.0102759 34.6443C0.00284474 40.0916 -0.000557582 42.8234 7.42131e-05 42.8396" fill="#AD3A10"/>
<path fill-rule="evenodd" clip-rule="evenodd" d="M10.1567 35.9366C11.7991 35.9155 12.6236 35.9426 12.6302 36.0179C12.6368 36.0931 12.6393 36.5422 12.6379 37.3652C12.6364 38.1882 12.643 38.8619 12.6578 39.3863C12.6726 39.9107 12.6321 40.3491 12.5364 40.7014C12.4407 41.0537 12.2006 41.424 11.8159 41.8123C11.4312 42.2007 11.0398 42.4709 10.6418 42.6231C10.2438 42.7753 10.0301 42.8539 10.0008 42.8589C9.97142 42.8639 9.95675 42.5719 9.95675 41.9831C9.95675 41.3942 9.95427 40.2727 9.9493 38.6184C9.94437 36.9642 9.94174 36.0847 9.94141 35.9799" fill="#AD3A10"/>
<path fill-rule="evenodd" clip-rule="evenodd" d="M59.4633 38.2941C59.7008 38.2317 59.7525 38.1219 59.7971 38.0271C59.8417 37.9323 59.8793 37.8525 59.9033 37.7396C59.9273 37.6266 59.9377 37.4806 59.9466 37.0814C59.9555 36.6822 59.9629 36.0297 59.9597 35.4876C59.9565 34.9456 59.9428 34.5139 59.6699 34.1122C59.3971 33.7105 58.8651 33.3387 58.2847 33.1416C57.7043 32.9445 57.0755 32.922 56.5506 32.9158C56.0257 32.9095 55.6047 32.9193 55.1684 32.9595C54.7322 32.9993 54.2806 33.0692 53.8737 33.2701C53.4667 33.4709 53.1044 33.8028 52.8736 34.1546C52.6427 34.5064 52.5433 34.8782 52.4728 35.7427C52.4024 36.6072 52.3608 37.9645 52.4164 38.9852C52.472 40.0059 52.6247 40.69 52.9504 41.264C53.276 41.838 53.7745 42.302 54.3835 42.5538C54.9925 42.8056 55.712 42.8452 56.4263 42.8376C57.1406 42.83 57.8499 42.7752 58.3759 42.5693C58.902 42.3635 59.2449 42.0067 59.4801 41.5988C59.7153 41.1909 59.8429 40.7318 59.8169 40.501C59.7908 40.2702 59.6112 40.2676 59.0965 40.2641C58.5819 40.2605 57.7321 40.256 57.2358 40.2563C56.7396 40.2566 56.5968 40.2618 56.3571 40.2602C56.1174 40.2585 55.7807 40.2503 55.4848 40.1601C55.1888 40.07 54.9336 39.8981 54.8098 39.6288C54.6858 39.3594 54.6932 38.9927 54.6977 38.7718C54.7022 38.551 54.7036 38.4762 54.7184 38.4387C54.7331 38.4012 54.761 38.4011 55.3733 38.3986C55.9856 38.396 57.1823 38.3912 57.9924 38.3813C58.8024 38.3714 59.2258 38.3564 59.4633 38.2941ZM55.6003 36.5179C55.9824 36.5508 56.6658 36.5376 57.0715 36.5047C57.4772 36.4718 57.6051 36.4191 57.6687 36.2452C57.7322 36.0714 57.7314 35.7765 57.6455 35.5287C57.5596 35.2809 57.3887 35.0803 57.0127 34.98C56.6366 34.8797 56.0555 34.8797 55.6976 34.9884C55.3398 35.0971 55.2051 35.3143 55.1356 35.5555C55.0659 35.7967 55.0612 36.0618 55.0993 36.2339C55.1374 36.4059 55.2182 36.4849 55.6003 36.5179Z" fill="#179A9C"/>
<path fill-rule="evenodd" clip-rule="evenodd" d="M40.6928 26.8242C40.0449 26.8242 39.4236 27.0759 38.9655 27.5239C38.5074 27.9719 38.25 28.5796 38.25 29.2132C38.25 29.6857 38.3933 30.1475 38.6617 30.5404C38.9301 30.9333 39.3116 31.2395 39.758 31.4203C40.2043 31.6011 40.6955 31.6484 41.1694 31.5562C41.6432 31.464 42.0785 31.2365 42.4201 30.9024C42.7617 30.5683 42.9944 30.1426 43.0886 29.6792C43.1829 29.2158 43.1345 28.7355 42.9496 28.299C42.7648 27.8624 42.4516 27.4893 42.0499 27.2268C41.6482 26.9643 41.1759 26.8242 40.6928 26.8242Z" fill="#AD3A10"/>
</svg>
