<svg width="98" height="76" viewBox="0 0 98 76" fill="none" xmlns="http://www.w3.org/2000/svg">
<path fill-rule="evenodd" clip-rule="evenodd" d="M48.5642 17.9343L20.8897 37.8683C17.7825 40.1065 13.8213 41.1597 9.74229 40.4975C5.66323 39.8352 2.23892 37.5831 0 34.4772L12.141 25.7319L46.5276 0.963311L46.5358 0.957281L46.5431 0.951796L46.5504 0.946296L46.5577 0.940811L46.565 0.935326L46.5724 0.929841L46.5797 0.924341C46.7271 0.818325 46.8705 0.716805 47.0715 0.595056C47.2895 0.46297 47.5752 0.307191 47.8205 0.208767C48.066 0.110343 48.2711 0.0693577 48.4909 0.0576493C48.7107 0.0459409 48.9452 0.0631354 49.2954 0.216625C49.6457 0.36975 50.1117 0.658533 50.4278 0.862607C50.7192 1.05086 50.883 1.16721 50.9875 1.24231L50.993 1.24596L50.9985 1.24962L51.0031 1.25328L51.0077 1.25694L51.0123 1.26059L51.0168 1.26426L51.0214 1.26792L51.026 1.27158L51.0306 1.27523L84.9852 25.7329L97.1263 34.4782C94.8874 37.5841 91.463 39.8363 87.3841 40.4985C83.305 41.1606 79.3438 40.1073 76.2366 37.8692L48.5642 17.9343Z" fill="#AD3A10"/>
<path fill-rule="evenodd" clip-rule="evenodd" d="M34.5288 53.1517L48.5626 43.1245L62.5965 53.1518C65.391 55.1485 68.9475 56.0795 72.6037 55.4716C76.2599 54.8637 79.3233 52.832 81.3208 50.0385L70.4014 42.2366L52.5077 29.4516L52.4994 29.4452L52.4912 29.4388L52.483 29.4333L52.4747 29.4278L52.4665 29.4223L52.4583 29.4168L52.45 29.4113C52.2881 29.2958 52.1516 29.1998 51.8247 28.9916C51.4759 28.7694 50.9104 28.4194 50.3727 28.1741C49.835 27.9287 49.3251 27.7881 48.75 27.7476C48.175 27.707 47.5347 27.7666 46.8166 28.0807C46.1324 28.3799 45.3776 28.9104 44.8268 29.3035L44.7999 29.3228L44.7732 29.3417L44.747 29.3604L44.7211 29.3789L44.6955 29.3972L44.6704 29.4152L44.6455 29.433L44.621 29.4505L44.5968 29.4678L44.5729 29.4849L44.5494 29.5016L44.5263 29.5182L44.5034 29.5345L44.4808 29.5506L44.4367 29.5822L44.4151 29.5976L44.3938 29.6128L44.3727 29.6279L44.352 29.6426L44.3316 29.6573L44.3116 29.6715L44.2917 29.6857L44.2722 29.6997L44.2529 29.7134L44.234 29.727L44.2153 29.7403L44.1969 29.7534L44.1788 29.7664L44.161 29.7791L44.1434 29.7917L44.1261 29.8041L44.109 29.8163L44.0922 29.8282L44.0757 29.8401L44.0594 29.8518L44.0434 29.8633L44.0276 29.8745L44.012 29.8856L43.9967 29.8966L43.9816 29.9074L43.9668 29.918L43.9522 29.9284L43.9378 29.9387L43.9236 29.9488L43.9097 29.9588L43.896 29.9686L43.8824 29.9782L43.8692 29.9877L43.8561 29.997L43.8432 30.0062L43.8305 30.0154L43.818 30.0245L43.8057 30.0337L43.7936 30.0428L43.7818 30.0511L43.7701 30.0593L43.7585 30.0675L43.7472 30.0758L43.736 30.084L43.725 30.0922L43.7142 30.0995L43.7035 30.1069L43.6931 30.1142L43.6828 30.1215L43.6726 30.1288L43.6626 30.1361L43.6527 30.1435L43.643 30.1508L43.6335 30.1572L43.6241 30.1636L26.7239 42.2387L15.8047 50.0405C17.8022 52.8341 20.8655 54.8657 24.5216 55.4736C28.178 56.0815 31.7342 55.1485 34.5288 53.1517Z" fill="#179A9C"/>
<path fill-rule="evenodd" clip-rule="evenodd" d="M15.3477 19.728C15.5373 19.5892 18.2844 17.5784 23.5889 13.6958C28.8933 9.81327 31.6193 7.75399 31.7668 7.51799C31.9143 7.28206 31.9698 6.09085 31.9334 3.94437C31.8969 1.79788 31.8764 0.604397 31.8719 0.363886C31.8676 0.123315 31.6939 0.004759 31.3508 0.00823494C31.008 0.0118938 28.5623 0.011285 24.0138 0.0064065C19.4653 0.00213781 17.0804 0 16.8591 0C16.6378 0 16.5258 0.173707 16.5229 0.521118C16.5198 0.868528 16.5199 1.20839 16.523 1.54067C16.526 1.87302 16.5521 4.5744 16.6011 9.64481C16.6503 14.7152 16.364 17.8376 15.7422 19.012" fill="#AD3A10"/>
<path fill-rule="evenodd" clip-rule="evenodd" d="M33.2383 60.7801C37.1301 56.8897 42.5067 54.4834 48.4456 54.4834C54.3844 54.4834 59.7609 56.8898 63.6527 60.7801L48.4456 75.9814L33.2383 60.7801Z" fill="#AD3A10"/>
</svg>
