<svg width="83" height="32" viewBox="0 0 83 32" fill="none" xmlns="http://www.w3.org/2000/svg">
<path fill-rule="evenodd" clip-rule="evenodd" d="M65.5642 10.8319L55.6275 17.9893C54.5119 18.7929 53.0895 19.1711 51.625 18.9333C50.1604 18.6955 48.9309 17.8869 48.127 16.7717L52.4862 13.6317L64.833 4.73836L64.8333 4.73816L64.8359 4.73619L64.8385 4.73422L64.8411 4.73225L64.8438 4.73028L64.8464 4.72831L64.849 4.72634L64.8517 4.72436C64.9046 4.6863 64.9561 4.64985 65.0282 4.60613C65.1065 4.55871 65.2091 4.50277 65.2972 4.46743C65.3853 4.43209 65.459 4.41738 65.5379 4.41317C65.6168 4.40897 65.701 4.41514 65.8267 4.47025C65.9525 4.52523 66.1198 4.62892 66.2333 4.7022C66.3379 4.76979 66.3968 4.81157 66.4343 4.83853L66.4363 4.83984L66.4383 4.84116L66.4399 4.84247L66.4415 4.84378L66.4432 4.8451L66.4448 4.84641L66.4465 4.84773L66.4481 4.84904L66.4498 4.85035L78.6414 13.632L83.0007 16.7721C82.1968 17.8873 80.9673 18.6959 79.5027 18.9337C78.0381 19.1714 76.6158 18.7932 75.5001 17.9896L65.5634 10.8322L65.5642 10.8319Z" fill="#AD3A10"/>
<path fill-rule="evenodd" clip-rule="evenodd" d="M60.5238 23.4771L65.5627 19.8768L70.6017 23.4771C71.605 24.1941 72.882 24.5283 74.1948 24.3101C75.5076 24.0918 76.6075 23.3623 77.3247 22.3593L73.404 19.558L66.9792 14.9674L66.9762 14.9651L66.9733 14.9628L66.9703 14.9609L66.9674 14.9589L66.9644 14.9569L66.9615 14.9549L66.9585 14.953C66.9003 14.9115 66.8513 14.877 66.734 14.8023C66.6087 14.7225 66.4057 14.5968 66.2126 14.5087C66.0196 14.4206 65.8365 14.3702 65.63 14.3556C65.4235 14.341 65.1936 14.3624 64.9358 14.4752C64.6901 14.5826 64.4191 14.7731 64.2213 14.9143L64.2117 14.9212L64.2021 14.928L64.1927 14.9347L64.1834 14.9413L64.1742 14.9479L64.1652 14.9544L64.1562 14.9608L64.1474 14.967L64.1388 14.9732L64.1302 14.9794L64.1217 14.9854L64.1134 14.9913L64.1052 14.9972L64.0971 15.003L64.0813 15.0143L64.0735 15.0199L64.0658 15.0253L64.0583 15.0307L64.0509 15.036L64.0435 15.0413L64.0363 15.0464L64.0292 15.0515L64.0222 15.0565L64.0153 15.0615L64.0085 15.0663L64.0018 15.0711L63.9952 15.0758L63.9887 15.0805L63.9823 15.085L63.976 15.0896L63.9697 15.094L63.9636 15.0984L63.9576 15.1027L63.9516 15.1069L63.9458 15.1111L63.94 15.1153L63.9344 15.1193L63.9288 15.1233L63.9233 15.1272L63.9179 15.1311L63.9125 15.1349L63.9073 15.1386L63.9021 15.1423L63.897 15.146L63.892 15.1495L63.8871 15.1531L63.8822 15.1565L63.8775 15.1599L63.8728 15.1633L63.8682 15.1666L63.8636 15.1699L63.8591 15.1732L63.8547 15.1764L63.8504 15.1797L63.8461 15.1827L63.8419 15.1856L63.8378 15.1886L63.8337 15.1915L63.8297 15.1945L63.8257 15.1975L63.8219 15.2001L63.818 15.2027L63.8143 15.2053L63.8106 15.208L63.8069 15.2106L63.8033 15.2132L63.7998 15.2159L63.7963 15.2185L63.7929 15.2208L63.7895 15.2231L57.7214 19.5587L53.8008 22.36C54.518 23.3631 55.6179 24.0925 56.9307 24.3108C58.2435 24.5291 59.5205 24.1948 60.5239 23.4778L60.5238 23.4771Z" fill="#179A9C"/>
<path fill-rule="evenodd" clip-rule="evenodd" d="M53.6367 11.476C53.7048 11.4262 54.6912 10.7042 56.5958 9.31014C58.5004 7.91609 59.4791 7.17669 59.5321 7.09196C59.5851 7.00724 59.605 6.57953 59.5919 5.80882C59.5788 5.03812 59.5714 4.60959 59.5698 4.52323C59.5683 4.43686 59.5059 4.39429 59.3827 4.39553C59.2596 4.39685 58.3815 4.39663 56.7483 4.39488C55.1152 4.39335 54.2589 4.39258 54.1794 4.39258C54.1 4.39258 54.0597 4.45495 54.0587 4.57969C54.0576 4.70443 54.0576 4.82646 54.0587 4.94577C54.0598 5.0651 54.0692 6.03504 54.0868 7.8556C54.1044 9.67616 54.0016 10.7973 53.7784 11.2189" fill="#AD3A10"/>
<path fill-rule="evenodd" clip-rule="evenodd" d="M60.0586 26.2159C61.456 24.8191 63.3865 23.9551 65.5189 23.9551C67.6512 23.9551 69.5817 24.8191 70.9791 26.2159L65.5189 31.6741L60.0586 26.2159Z" fill="#AD3A10"/>
<path fill-rule="evenodd" clip-rule="evenodd" d="M6.55247 4.33984C6.26909 4.33984 5.98848 4.39563 5.72666 4.50404C5.46484 4.61244 5.22695 4.77133 5.02657 4.97164C4.82618 5.17194 4.66723 5.40974 4.55879 5.67145C4.45034 5.93316 4.39453 6.21367 4.39453 6.49694C4.39454 6.92357 4.5211 7.34061 4.75822 7.69533C4.99533 8.05005 5.33236 8.32652 5.72666 8.48978C6.12097 8.65304 6.55484 8.69576 6.97344 8.61252C7.39203 8.52929 7.77653 8.32385 8.07831 8.02218C8.3801 7.72051 8.58562 7.33617 8.66888 6.91774C8.75215 6.49932 8.70942 6.0656 8.5461 5.67145C8.38277 5.2773 8.10619 4.94041 7.75133 4.70339C7.39647 4.46637 6.97926 4.33985 6.55247 4.33984Z" fill="#AD3A10"/>
<path fill-rule="evenodd" clip-rule="evenodd" d="M40.9102 8.06303C40.9178 7.39949 41.175 6.73825 41.6815 6.23197C42.1957 5.71794 42.8697 5.4609 43.5437 5.46094V8.09341H43.543V15.9585C43.543 16.632 43.286 17.3055 42.7719 17.8194C42.2578 18.3333 41.584 18.5902 40.9102 18.5902V15.9585V8.09341V8.09177L40.9102 8.06303Z" fill="#AD3A10"/>
<path fill-rule="evenodd" clip-rule="evenodd" d="M39.9233 6.28945C42.5845 4.38512 44.0667 3.25242 44.37 2.89136C44.6732 2.53032 44.8673 2.15224 44.9523 1.75711C45.0373 1.36196 45.0717 0.985616 45.0555 0.628081C45.0394 0.270547 44.9888 0.0707816 44.9038 0.0287857C44.8188 -0.0131883 44.7337 -0.00925924 44.6486 0.0405753C44.5635 0.0904318 43.9639 0.500504 42.8498 1.27079C41.7357 2.04108 41.0137 2.58888 40.6838 2.91419C40.3539 3.23949 40.0979 3.58922 39.9158 3.96337C39.7337 4.33752 39.6402 4.71322 39.6352 5.09046C39.6303 5.46768 39.6632 5.88229 39.7339 6.33428" fill="#AD3A10"/>
<path fill-rule="evenodd" clip-rule="evenodd" d="M39.1276 17.6166C39.7462 16.7199 39.7469 14.9733 39.7465 13.2989C39.7461 11.6246 39.7445 10.0226 39.7411 9.12338C39.7378 8.22422 39.7331 8.02792 39.6629 7.83411C39.5927 7.64033 39.457 7.44902 39.3066 7.32904C39.1562 7.2091 38.991 7.16048 38.8693 7.12807C38.7476 7.09568 38.6694 7.07953 38.5976 7.07342C38.5258 7.06731 38.4604 7.07112 36.9916 7.07079C35.5226 7.0705 32.6502 7.06593 31.196 7.06366C29.7417 7.06136 29.7057 7.06136 29.6045 7.07433C29.5033 7.08724 29.337 7.11299 29.1867 7.19963C29.0364 7.28627 28.9022 7.43381 28.8299 7.56614C28.7575 7.6985 28.747 7.81565 28.7413 9.63695C28.7357 11.4583 28.7349 14.9837 28.7319 16.762C28.729 18.5402 28.7241 18.5712 28.7892 18.5867C28.8543 18.6022 28.9895 18.6022 29.2118 18.5436C29.4341 18.4849 29.7433 18.3677 30.0194 18.1762C30.2955 17.9847 30.5384 17.719 30.7503 17.4086C30.9622 17.0981 31.143 16.743 31.2171 15.4701C31.2913 14.197 31.2587 12.0061 31.258 10.8894C31.2573 9.7728 31.2885 9.73039 31.3284 9.70356C31.3682 9.67676 31.4166 9.6655 31.7752 9.65965C32.1337 9.6538 32.8023 9.65337 33.4857 9.65255C34.1691 9.65157 34.8674 9.65058 35.4238 9.69315C35.9804 9.73588 36.3951 9.82258 36.6729 9.95774C36.9507 10.0929 37.0916 10.2765 37.1936 10.4477C37.2955 10.6189 37.3586 10.7778 37.391 10.9737C37.4233 11.1695 37.4249 11.4024 37.4243 11.5393C37.4237 11.6761 37.4211 11.717 37.3929 11.7387C37.3646 11.7605 37.3108 11.7631 37.2697 11.7623C37.2285 11.7613 37.2001 11.7571 36.5855 11.7511C35.9707 11.7451 34.7697 11.7374 34.0733 11.7488C33.377 11.7602 33.1852 11.7906 33.0609 11.863C32.9366 11.9353 32.8797 12.0495 32.8514 12.1269C32.823 12.2043 32.8232 12.2448 32.8264 13.2281C32.8297 14.2113 32.8359 16.1372 32.8363 17.1615C32.8366 18.1859 32.8312 18.3087 32.8572 18.3988C32.8833 18.4889 32.9407 18.5463 33.0514 18.5754C33.1621 18.6044 33.3261 18.6049 33.8032 18.6055C34.2802 18.6062 35.0704 18.6068 35.4948 18.6071C35.9192 18.6073 35.9778 18.6071 36.6252 18.5836C37.2727 18.56 38.5091 18.5133 39.1276 17.6166ZM37.3763 14.0151C37.385 14.0384 37.3872 14.0695 37.388 14.4363C37.3886 14.8031 37.3879 15.5056 37.0788 15.8689C36.7697 16.2323 36.1522 16.2566 35.8282 16.2679C35.5043 16.2792 35.4739 16.2776 35.4345 16.2779C35.395 16.2783 35.3465 16.2809 35.3048 16.2742C35.2632 16.2676 35.2283 16.2519 35.2108 16.2213C35.1933 16.1906 35.193 16.1451 35.1946 15.7903C35.1962 15.4355 35.1995 14.7715 35.2012 14.4246C35.2028 14.0778 35.2032 14.048 35.2126 14.0231C35.222 13.9982 35.2408 13.978 35.2599 13.9682C35.279 13.9584 35.2984 13.9589 35.6356 13.9598C35.9727 13.9608 36.6276 13.9618 36.9642 13.9621C37.3008 13.9623 37.3191 13.9615 37.3358 13.9688C37.3525 13.9762 37.3676 13.9918 37.3763 14.0151Z" fill="#AD3A10"/>
<path fill-rule="evenodd" clip-rule="evenodd" d="M27.1835 3.4707C27.1869 9.54579 27.1824 12.6393 27.1699 12.7514C27.1575 12.8634 27.0818 13.4669 26.9429 14.5618C26.804 15.6567 26.4767 16.4839 25.9609 17.0432C25.4452 17.6025 24.9279 18.0092 24.4092 18.2631C23.8905 18.5171 23.0175 18.6373 21.7903 18.6238C20.5631 18.6103 19.9345 18.596 19.9044 18.5808C19.8744 18.5656 19.8413 18.4995 19.8052 18.3823C19.7691 18.2651 19.7577 16.7141 19.771 13.7291C19.7842 10.7441 19.7911 9.05959 19.7916 8.67545C19.7921 8.29134 19.8147 7.96855 19.8596 7.70709C19.9043 7.44564 20.0664 7.10315 20.3459 6.67962C20.6253 6.25607 20.9955 5.95022 21.4565 5.7621C21.9174 5.57397 22.1837 5.47624 22.2553 5.4689C22.3269 5.46159 22.3626 5.46497 22.3625 5.47905C22.3624 5.49313 22.3571 7.24167 22.3464 10.7247C22.3358 14.2077 22.3344 16.0123 22.3424 16.1387C22.3503 16.265 22.5752 16.2595 23.0169 16.1221C23.4587 15.9847 23.7877 15.7695 24.0041 15.4766C24.2204 15.1837 24.3831 14.8972 24.492 14.6171C24.6009 14.337 24.6629 13.5269 24.6779 12.187C24.6929 10.8472 24.6884 9.55625 24.6644 8.31431C24.6403 7.07236 24.6696 6.1988 24.7521 5.69362C24.8347 5.18844 25.042 4.77053 25.3742 4.43989C25.7063 4.10924 26.0546 3.86627 26.4192 3.71099C26.7838 3.55568 27.0361 3.47616 27.1759 3.47241" fill="#179A9C"/>
<path fill-rule="evenodd" clip-rule="evenodd" d="M18.1626 5.42188C18.0047 5.46245 17.7711 5.53288 17.4617 5.63316C17.1522 5.73344 16.8228 5.96832 16.4735 6.33779C16.1241 6.70725 15.8992 7.09141 15.7985 7.49027C15.6979 7.88912 15.6521 8.40395 15.6611 9.03476C15.6701 9.66558 15.6701 10.2558 15.6611 10.8056C15.6521 11.3553 15.3833 11.6256 14.8547 11.6166C14.3261 11.6076 13.8578 11.6054 13.4499 11.6099C13.042 11.6144 12.8386 11.6201 12.8397 11.6268C12.8408 11.6336 12.8447 10.7431 12.8512 8.95542C12.8577 7.1677 12.8569 6.1539 12.8489 5.91401C12.8409 5.67412 12.8359 5.53615 12.834 5.50011C12.832 5.46405 12.716 5.48657 12.4861 5.56767C12.2563 5.64879 11.9717 5.79073 11.6325 5.99348C11.2933 6.19624 10.9546 6.54432 10.6166 7.03772C10.2785 7.53109 10.116 8.28936 10.1291 9.31252C10.1422 10.3357 10.1487 11.3023 10.1487 12.2125C10.1487 13.1227 10.0901 13.812 9.97295 14.2807C9.85574 14.7493 9.70211 15.1389 9.51204 15.4494C9.32198 15.76 9.07144 15.9784 8.76042 16.1046C8.4494 16.2307 8.17895 16.296 7.94906 16.3005C7.71918 16.3051 6.99796 16.3073 5.7854 16.3073C4.57285 16.3073 3.82459 16.3006 3.54062 16.287C3.25663 16.2735 3.111 16.1967 3.10373 16.0564C3.09646 15.9162 3.09442 14.8295 3.09762 12.7963C3.10082 10.7631 3.10216 9.73635 3.10166 9.716C3.10113 9.69566 3.08169 9.68212 3.04334 9.67538C3.00498 9.66861 2.69902 9.75564 2.12543 9.93645C1.55185 10.1172 1.10954 10.451 0.798524 10.9376C0.487505 11.4242 0.286787 12.0084 0.196366 12.6902C0.105967 13.372 0.0562648 14.1996 0.0472621 15.1728C0.0382376 16.1461 0.04344 16.9502 0.0628691 17.5852C0.0823201 18.2202 0.0909172 18.5496 0.088661 18.5732C0.0864049 18.5969 0.112887 18.6076 0.168107 18.6053C0.223328 18.6031 1.56101 18.6003 4.18116 18.5969C6.80132 18.5935 8.5321 18.6122 9.37349 18.6531C10.2149 18.6939 10.8925 18.4801 11.4063 18.0115C11.9202 17.5429 12.2551 17.1321 12.411 16.7792C12.5669 16.4263 12.6776 16.0713 12.7429 15.7142C12.8083 15.3571 12.8377 14.9702 12.8311 14.5534C12.8244 14.1365 12.8428 13.9379 12.8861 13.9575C12.9294 13.977 13.1965 13.9846 13.6874 13.9801C14.1784 13.9756 14.7857 13.9733 15.5096 13.9731C16.2334 13.9729 16.7381 13.9058 17.0237 13.7717C17.3092 13.6377 17.5593 13.4398 17.7738 13.1782C17.9882 12.9166 18.1049 12.51 18.1238 11.9583C18.1427 11.4066 18.1539 10.4102 18.1573 8.96911C18.1608 7.52798 18.1625 6.43118 18.1625 5.67872" fill="#179A9C"/>
<path fill-rule="evenodd" clip-rule="evenodd" d="M12.9413 18.3692C13.0766 17.7023 13.2817 17.2225 13.5567 16.9296C13.8316 16.6367 14.1021 16.4599 14.3682 16.3992C14.6342 16.3386 15.2248 16.3037 16.1399 16.2947C17.0549 16.2857 17.5969 16.2847 17.766 16.2917C17.935 16.2988 18.0432 16.3033 18.0905 16.3053C18.1379 16.3073 18.166 16.3724 18.1748 16.5007C18.1837 16.6289 18.1071 16.9173 17.945 17.3658C17.7828 17.8142 17.5282 18.1444 17.1811 18.3561C16.834 18.5679 16.1376 18.6591 15.0917 18.6296C14.0458 18.6002 13.3088 18.6037 12.8809 18.64" fill="#179A9C"/>
<path fill-rule="evenodd" clip-rule="evenodd" d="M12.2446 26.4941C13.3756 25.2157 13.9605 24.5649 13.9992 24.5419C14.0379 24.5188 14.0783 24.5049 14.1204 24.5001C14.1625 24.4953 15.3451 24.4922 17.6681 24.4908C19.9912 24.4895 21.1913 24.4905 21.2686 24.4938C21.3459 24.497 21.3854 24.5535 21.3873 24.663C21.389 24.7725 21.3961 25.5421 21.4086 26.9716C21.4209 28.401 21.4242 29.2679 21.4183 29.5722C21.4125 29.8765 21.3171 30.2847 21.1323 30.7967C20.9475 31.3087 20.622 31.619 20.1558 31.7277C19.6896 31.8363 19.4584 31.8804 19.4621 31.86C19.4658 31.8395 19.4642 31.1321 19.4573 29.7376C19.4504 28.3432 19.4462 27.4988 19.4447 27.2047C19.4432 26.9105 19.3482 26.6751 19.1597 26.4986C18.9711 26.3221 18.7161 26.2338 18.3948 26.2338C18.0734 26.2338 17.9138 26.248 17.9157 26.2764C17.9177 26.3048 17.9196 26.4148 17.9214 26.6065C17.9231 26.7981 17.9166 27.3981 17.9017 28.4064C17.8868 29.4147 17.8831 30.0553 17.8906 30.3282C17.8981 30.6011 17.7643 30.9162 17.4894 31.2737C17.2144 31.6311 16.9046 31.8205 16.5602 31.8419C16.2156 31.8632 16.0332 31.8711 16.0127 31.8655C15.9923 31.8599 15.9851 31.6138 15.9912 31.1273C15.9973 30.6406 15.9945 29.8912 15.9828 28.8788C15.9711 27.8664 15.9564 27.2754 15.9389 27.1057C15.9213 26.936 15.8475 26.7469 15.7173 26.5383C15.5872 26.3298 15.2997 26.2255 14.8548 26.2255C14.4099 26.2255 14.1805 26.2255 14.1666 26.2255C14.1527 26.2255 14.1451 26.3782 14.1438 26.6836C14.1425 26.989 14.1511 27.6737 14.1698 28.7377C14.1883 29.8016 14.1493 30.4812 14.0527 30.7765C13.9561 31.0717 13.7918 31.3135 13.5595 31.502C13.3273 31.6905 13.0492 31.8033 12.725 31.8404C12.4009 31.8776 12.2384 31.8915 12.2374 31.8822C12.2366 31.8729 12.237 31.0023 12.2387 29.2703C12.2407 27.5384 12.238 26.6362 12.2305 26.5638" fill="#AD3A10"/>
<path fill-rule="evenodd" clip-rule="evenodd" d="M25.0381 21.0549C25.0269 20.9584 25.0194 20.8943 25.0157 20.8627C25.0121 20.8311 24.9536 20.8144 24.8403 20.8125C24.7269 20.8108 24.4241 20.8619 23.9316 20.9658C23.4391 21.0698 23.1001 21.4068 22.9146 21.9768C22.7291 22.5468 22.6358 22.9184 22.6349 23.0916C22.634 23.2647 22.6387 24.5524 22.6489 26.9546C22.6591 29.3569 22.6643 30.7753 22.6643 31.2098C22.6643 31.6442 22.7887 31.8633 23.0376 31.867C23.2864 31.8708 24.0842 31.8764 25.4309 31.8838C26.7776 31.8912 27.4584 31.8912 27.4732 31.8838C27.4881 31.8764 27.4992 31.5533 27.5067 30.9145C27.5141 30.2758 27.502 29.9561 27.4704 29.9556C27.4389 29.9551 27.3804 29.954 27.2949 29.9523C27.2095 29.9507 27.1352 29.9511 27.072 29.9533C27.0089 29.9554 26.6727 29.9574 26.0634 29.9592C25.4541 29.961 25.129 29.8514 25.0882 29.6305C25.0473 29.4096 25.0269 29.2731 25.027 29.2211" fill="#179A9C"/>
<path fill-rule="evenodd" clip-rule="evenodd" d="M30.704 24.5234C29.5894 24.6932 28.9271 25.0027 28.7172 25.4521C28.5074 25.9014 28.4012 26.1993 28.3989 26.3457C28.3966 26.492 28.3917 26.8012 28.3843 27.2731C28.3768 27.745 28.3771 28.6303 28.3853 29.9292C28.3933 31.2281 28.4011 31.8784 28.4085 31.8803C28.4159 31.882 28.7298 31.8482 29.3501 31.7787C29.9704 31.709 30.3678 31.392 30.5424 30.8275C30.717 30.2631 30.8053 29.9024 30.8071 29.7455C30.8088 29.5886 30.8052 28.7934 30.7962 27.3599C30.787 25.9264 30.788 24.9869 30.7991 24.5412" fill="#179A9C"/>
<path fill-rule="evenodd" clip-rule="evenodd" d="M31.7324 32.0005C31.7793 29.2912 31.7994 27.3628 31.7927 26.2155C31.7861 25.0681 31.7883 24.4963 31.7995 24.5C31.8106 24.5037 32.4756 24.504 33.7945 24.5007C35.1133 24.4973 35.9506 24.6134 36.3063 24.8488C36.6619 25.0843 36.9022 25.3738 37.027 25.7173C37.1519 26.0608 37.2081 26.3124 37.1957 26.4721C37.1833 26.6318 37.1916 27.3444 37.2208 28.61C37.25 29.8756 37.1826 30.6825 37.0187 31.0307C36.8548 31.3789 36.6159 31.6077 36.3021 31.717C35.9882 31.8263 35.7658 31.881 35.6348 31.881C35.5039 31.881 35.4384 31.8777 35.4384 31.8712C35.4385 31.8647 35.4395 31.3229 35.4417 30.2457C35.4439 29.1686 35.4453 28.453 35.4459 28.099C35.4466 27.745 35.4181 27.3584 35.3605 26.9392C35.3028 26.5201 35.0083 26.292 34.4771 26.2548C33.9458 26.2177 33.6802 26.227 33.6803 26.2827C33.6803 26.3384 33.6807 26.6353 33.6813 27.1734C33.6817 27.7114 33.6819 28.374 33.6819 29.1611C33.6819 29.9482 33.6673 30.4558 33.6381 30.6841C33.6088 30.9123 33.4946 31.1522 33.2956 31.4038C33.0965 31.6555 32.6136 31.8511 31.8466 31.9908" fill="#179A9C"/>
<path fill-rule="evenodd" clip-rule="evenodd" d="M2.51367 26.2237C2.5434 25.0725 2.56371 24.5029 2.57462 24.5148C2.58551 24.5267 4.25079 24.5313 7.57047 24.5287C10.8901 24.5261 12.5816 24.5136 12.6447 24.4913C12.7079 24.4691 12.763 24.4599 12.81 24.4638C12.857 24.4677 12.8162 24.6305 12.6874 24.9524C12.5586 25.2742 12.3478 25.5551 12.0551 25.795C11.7624 26.0349 11.3343 26.1701 10.7706 26.2005C10.207 26.2308 8.85715 26.2479 6.721 26.2516C4.58483 26.2553 3.21582 26.2497 2.61398 26.2349" fill="#AD3A10"/>
<path fill-rule="evenodd" clip-rule="evenodd" d="M0.0231211 31.8839C0.710981 31.7809 1.19944 31.6261 1.48848 31.4195C1.77751 31.2129 1.96277 30.9321 2.04425 30.5769C2.12573 30.2218 2.16925 30.0322 2.17479 30.008C2.18033 29.9839 2.18826 29.504 2.19857 28.5684C2.20889 27.6328 2.19161 26.4179 2.14673 24.9237C2.10185 23.4296 2.17537 22.4089 2.36729 21.8618C2.55924 21.3147 3.0987 21.0443 3.98567 21.0508C4.87266 21.0573 5.59943 21.0643 6.16599 21.0717C6.73256 21.0791 7.04557 21.1014 7.10499 21.1385C7.16442 21.1757 7.20528 21.3261 7.22758 21.5897C7.24988 21.8534 7.257 22.1229 7.24893 22.3982C7.24087 22.6736 7.23898 22.9484 7.24325 23.2227C7.24752 23.497 7.25616 23.635 7.26917 23.6369C7.28216 23.6387 7.60537 23.6424 8.2388 23.648C8.87223 23.6536 9.18753 23.6481 9.1847 23.6313C9.18188 23.6146 9.18436 23.5674 9.19216 23.4896C9.19994 23.4119 9.20059 22.7872 9.19413 21.6156C9.18769 20.444 9.18384 19.84 9.18257 19.8035C9.18125 19.767 9.17365 19.6953 9.15977 19.5886C9.14583 19.4818 9.07572 19.4256 8.94942 19.4201C8.82312 19.4145 7.82703 19.399 5.96116 19.3735C4.09527 19.348 2.72327 19.3469 1.84517 19.3702C0.967051 19.3936 0.440211 19.4098 0.264648 19.4189C0.0890858 19.4279 0.00368085 19.477 0.00843408 19.5662C0.0132092 19.6553 0.0128919 21.7268 0.00748152 25.7806C0.00207116 29.8345 -0.000405958 31.8674 5.40322e-05 31.8795" fill="#AD3A10"/>
<path fill-rule="evenodd" clip-rule="evenodd" d="M7.39501 26.7434C8.59083 26.7278 9.19113 26.7479 9.19593 26.8039C9.20071 26.8599 9.20256 27.1941 9.20148 27.8066C9.20039 28.4191 9.20523 28.9204 9.21601 29.3107C9.22676 29.7009 9.1973 30.0271 9.12762 30.2893C9.05797 30.5515 8.8831 30.8271 8.60301 31.116C8.32292 31.405 8.03797 31.6062 7.74818 31.7194C7.45841 31.8327 7.30284 31.8912 7.28149 31.8949C7.26013 31.8986 7.24945 31.6813 7.24945 31.2431C7.24945 30.8049 7.24765 29.9703 7.24403 28.7392C7.24044 27.5082 7.23852 26.8536 7.23828 26.7757" fill="#AD3A10"/>
<path fill-rule="evenodd" clip-rule="evenodd" d="M43.292 28.4998C43.4649 28.4534 43.5025 28.3717 43.535 28.3012C43.5675 28.2306 43.5948 28.1712 43.6123 28.0872C43.6298 28.0031 43.6374 27.8945 43.6439 27.5974C43.6503 27.3003 43.6557 26.8147 43.6534 26.4113C43.6511 26.0079 43.6411 25.6867 43.4424 25.3877C43.2438 25.0888 42.8565 24.8121 42.4339 24.6654C42.0113 24.5187 41.5535 24.502 41.1713 24.4974C40.7891 24.4927 40.4826 24.5 40.165 24.5299C39.8474 24.5596 39.5186 24.6116 39.2223 24.761C38.9261 24.9105 38.6623 25.1575 38.4942 25.4193C38.3261 25.6811 38.2538 25.9577 38.2024 26.6011C38.1511 27.2445 38.1209 28.2546 38.1613 29.0141C38.2018 29.7737 38.313 30.2828 38.5501 30.71C38.7872 31.1372 39.1502 31.4825 39.5935 31.6698C40.0369 31.8572 40.5607 31.8867 41.0808 31.8811C41.6009 31.8754 42.1173 31.8346 42.5003 31.6814C42.8833 31.5282 43.1329 31.2627 43.3042 30.9592C43.4755 30.6556 43.5684 30.3139 43.5494 30.1422C43.5304 29.9704 43.3997 29.9685 43.0249 29.9659C42.6502 29.9632 42.0315 29.9598 41.6702 29.9601C41.3089 29.9603 41.205 29.9642 41.0305 29.963C40.8559 29.9617 40.6108 29.9556 40.3953 29.8885C40.1799 29.8215 39.9941 29.6935 39.9039 29.4931C39.8137 29.2926 39.819 29.0197 39.8223 28.8554C39.8255 28.691 39.8266 28.6353 39.8373 28.6075C39.8481 28.5795 39.8684 28.5795 40.3142 28.5776C40.76 28.5756 41.6313 28.5721 42.221 28.5648C42.8108 28.5574 43.119 28.5462 43.292 28.4998ZM40.4794 27.178C40.7576 27.2025 41.2552 27.1927 41.5506 27.1682C41.846 27.1437 41.9391 27.1045 41.9854 26.9751C42.0316 26.8458 42.031 26.6263 41.9685 26.4419C41.9059 26.2575 41.7815 26.1082 41.5078 26.0335C41.234 25.9589 40.8108 25.9589 40.5503 26.0398C40.2897 26.1207 40.1917 26.2823 40.1411 26.4618C40.0903 26.6413 40.087 26.8386 40.1147 26.9666C40.1424 27.0947 40.2012 27.1535 40.4794 27.178Z" fill="#179A9C"/>
<path fill-rule="evenodd" clip-rule="evenodd" d="M29.6262 19.9609C29.1545 19.9609 28.7021 20.1482 28.3686 20.4816C28.035 20.8151 27.8477 21.2673 27.8477 21.7388C27.8477 22.0904 27.952 22.4341 28.1474 22.7265C28.3428 23.0188 28.6206 23.2467 28.9456 23.3813C29.2705 23.5158 29.6281 23.551 29.9731 23.4824C30.3181 23.4138 30.635 23.2445 30.8838 22.9959C31.1325 22.7472 31.3019 22.4305 31.3705 22.0856C31.4391 21.7407 31.4039 21.3833 31.2693 21.0584C31.1347 20.7336 30.9067 20.4559 30.6143 20.2606C30.3218 20.0652 29.9779 19.9609 29.6262 19.9609Z" fill="#AD3A10"/>
</svg>
